solid exported
	facet normal 1 0 0
		outer loop
			vertex 60 -16 45
			vertex 60 -28 45
			vertex 60 -16 -45
		endloop
	endfacet
	facet normal 1 0 0
		outer loop
			vertex 60 -28 45
			vertex 60 -28 -45
			vertex 60 -16 -45
		endloop
	endfacet
	facet normal -1 0 0
		outer loop
			vertex -60 -16 -45
			vertex -60 -28 -45
			vertex -60 -16 45
		endloop
	endfacet
	facet normal -1 0 0
		outer loop
			vertex -60 -28 -45
			vertex -60 -28 45
			vertex -60 -16 45
		endloop
	endfacet
	facet normal 0 1 0
		outer loop
			vertex -60 -16 -45
			vertex -60 -16 45
			vertex 60 -16 -45
		endloop
	endfacet
	facet normal 0 1 0
		outer loop
			vertex -60 -16 45
			vertex 60 -16 45
			vertex 60 -16 -45
		endloop
	endfacet
	facet normal 0 -1 0
		outer loop
			vertex -60 -28 45
			vertex -60 -28 -45
			vertex 60 -28 45
		endloop
	endfacet
	facet normal 0 -1 0
		outer loop
			vertex -60 -28 -45
			vertex 60 -28 -45
			vertex 60 -28 45
		endloop
	endfacet
	facet normal 0 0 1
		outer loop
			vertex -60 -16 45
			vertex -60 -28 45
			vertex 60 -16 45
		endloop
	endfacet
	facet normal 0 0 1
		outer loop
			vertex -60 -28 45
			vertex 60 -28 45
			vertex 60 -16 45
		endloop
	endfacet
	facet normal 0 0 -1
		outer loop
			vertex 60 -16 -45
			vertex 60 -28 -45
			vertex -60 -16 -45
		endloop
	endfacet
	facet normal 0 0 -1
		outer loop
			vertex 60 -28 -45
			vertex -60 -28 -45
			vertex -60 -16 -45
		endloop
	endfacet
	facet normal 1 0 0
		outer loop
			vertex -48 32 45
			vertex -48 -28 45
			vertex -48 32 -45
		endloop
	endfacet
	facet normal 1 0 0
		outer loop
			vertex -48 -28 45
			vertex -48 -28 -45
			vertex -48 32 -45
		endloop
	endfacet
	facet normal -1 0 0
		outer loop
			vertex -60 32 -45
			vertex -60 -28 -45
			vertex -60 32 45
		endloop
	endfacet
	facet normal -1 0 0
		outer loop
			vertex -60 -28 -45
			vertex -60 -28 45
			vertex -60 32 45
		endloop
	endfacet
	facet normal 0 1 0
		outer loop
			vertex -60 32 -45
			vertex -60 32 45
			vertex -48 32 -45
		endloop
	endfacet
	facet normal 0 1 0
		outer loop
			vertex -60 32 45
			vertex -48 32 45
			vertex -48 32 -45
		endloop
	endfacet
	facet normal 0 -1 0
		outer loop
			vertex -60 -28 45
			vertex -60 -28 -45
			vertex -48 -28 45
		endloop
	endfacet
	facet normal 0 -1 0
		outer loop
			vertex -60 -28 -45
			vertex -48 -28 -45
			vertex -48 -28 45
		endloop
	endfacet
	facet normal 0 0 1
		outer loop
			vertex -60 32 45
			vertex -60 -28 45
			vertex -48 32 45
		endloop
	endfacet
	facet normal 0 0 1
		outer loop
			vertex -60 -28 45
			vertex -48 -28 45
			vertex -48 32 45
		endloop
	endfacet
	facet normal 0 0 -1
		outer loop
			vertex -48 32 -45
			vertex -48 -28 -45
			vertex -60 32 -45
		endloop
	endfacet
	facet normal 0 0 -1
		outer loop
			vertex -48 -28 -45
			vertex -60 -28 -45
			vertex -60 32 -45
		endloop
	endfacet
	facet normal 1 0 0
		outer loop
			vertex -21 13 6
			vertex -21 -17 6
			vertex -21 13 -6
		endloop
	endfacet
	facet normal 1 0 0
		outer loop
			vertex -21 -17 6
			vertex -21 -17 -6
			vertex -21 13 -6
		endloop
	endfacet
	facet normal -1 0 0
		outer loop
			vertex -51 13 -6
			vertex -51 -17 -6
			vertex -51 13 6
		endloop
	endfacet
	facet normal -1 0 0
		outer loop
			vertex -51 -17 -6
			vertex -51 -17 6
			vertex -51 13 6
		endloop
	endfacet
	facet normal 0 1 0
		outer loop
			vertex -51 13 -6
			vertex -51 13 6
			vertex -21 13 -6
		endloop
	endfacet
	facet normal 0 1 0
		outer loop
			vertex -51 13 6
			vertex -21 13 6
			vertex -21 13 -6
		endloop
	endfacet
	facet normal 0 -1 0
		outer loop
			vertex -51 -17 6
			vertex -51 -17 -6
			vertex -21 -17 6
		endloop
	endfacet
	facet normal 0 -1 0
		outer loop
			vertex -51 -17 -6
			vertex -21 -17 -6
			vertex -21 -17 6
		endloop
	endfacet
	facet normal 0 0 1
		outer loop
			vertex -51 13 6
			vertex -51 -17 6
			vertex -21 13 6
		endloop
	endfacet
	facet normal 0 0 1
		outer loop
			vertex -51 -17 6
			vertex -21 -17 6
			vertex -21 13 6
		endloop
	endfacet
	facet normal 0 0 -1
		outer loop
			vertex -21 13 -6
			vertex -21 -17 -6
			vertex -51 13 -6
		endloop
	endfacet
	facet normal 0 0 -1
		outer loop
			vertex -21 -17 -6
			vertex -51 -17 -6
			vertex -51 13 -6
		endloop
	endfacet
	facet normal 1 0 0
		outer loop
			vertex -40 27 12
			vertex -40 21 12
			vertex -40 27 -12
		endloop
	endfacet
	facet normal 1 0 0
		outer loop
			vertex -40 21 12
			vertex -40 21 -12
			vertex -40 27 -12
		endloop
	endfacet
	facet normal -1 0 0
		outer loop
			vertex -48 27 -12
			vertex -48 21 -12
			vertex -48 27 12
		endloop
	endfacet
	facet normal -1 0 0
		outer loop
			vertex -48 21 -12
			vertex -48 21 12
			vertex -48 27 12
		endloop
	endfacet
	facet normal 0 1 0
		outer loop
			vertex -48 27 -12
			vertex -48 27 12
			vertex -40 27 -12
		endloop
	endfacet
	facet normal 0 1 0
		outer loop
			vertex -48 27 12
			vertex -40 27 12
			vertex -40 27 -12
		endloop
	endfacet
	facet normal 0 -1 0
		outer loop
			vertex -48 21 12
			vertex -48 21 -12
			vertex -40 21 12
		endloop
	endfacet
	facet normal 0 -1 0
		outer loop
			vertex -48 21 -12
			vertex -40 21 -12
			vertex -40 21 12
		endloop
	endfacet
	facet normal 0 0 1
		outer loop
			vertex -48 27 12
			vertex -48 21 12
			vertex -40 27 12
		endloop
	endfacet
	facet normal 0 0 1
		outer loop
			vertex -48 21 12
			vertex -40 21 12
			vertex -40 27 12
		endloop
	endfacet
	facet normal 0 0 -1
		outer loop
			vertex -40 27 -12
			vertex -40 21 -12
			vertex -48 27 -12
		endloop
	endfacet
	facet normal 0 0 -1
		outer loop
			vertex -40 21 -12
			vertex -48 21 -12
			vertex -48 27 -12
		endloop
	endfacet
endsolid exported
